<svg xmlns="http://www.w3.org/2000/svg" width="1200" height="380" viewBox="0 0 1200 380" font-family="Consolas, 'Cascadia Mono', 'SF Mono', Menlo, 'DejaVu Sans Mono', monospace">
<style>
.ap{opacity:0;animation:ap .5s cubic-bezier(.2,.8,.2,1) forwards}
.sube{opacity:0;transform:translateY(14px);animation:sube .6s cubic-bezier(.2,.8,.2,1) forwards}
.cursor{animation:parpadeo 1.1s steps(1) infinite}
.pulso{animation:pulso 2s ease-in-out infinite}
.px{opacity:0;animation:ap .08s forwards}
@keyframes ap{to{opacity:1}}
@keyframes sube{to{opacity:1;transform:none}}
@keyframes parpadeo{50%{opacity:0}}
@keyframes pulso{50%{opacity:.35}}

</style>
<defs>
  <pattern id="puntos" width="24" height="24" patternUnits="userSpaceOnUse"><circle cx="1" cy="1" r="1" fill="#16213a"/></pattern>
  <radialGradient id="luz" cx="50%" cy="0%" r="70%"><stop offset="0" stop-color="#4d9fff" stop-opacity=".14"/><stop offset="1" stop-color="#4d9fff" stop-opacity="0"/></radialGradient>
</defs>
<rect width="1200" height="380" rx="18" fill="#070b14"/>
<rect width="1200" height="380" rx="18" fill="url(#puntos)"/>
<rect width="1200" height="380" rx="18" fill="url(#luz)"/>
<rect x="1" y="1" width="1198" height="378" rx="17" fill="none" stroke="#1e2a3d" stroke-width="2"/>
<circle cx="34" cy="34" r="7" fill="#ff5f57"/><circle cx="58" cy="34" r="7" fill="#febc2e"/><circle cx="82" cy="34" r="7" fill="#28c840"/>
<text x="108" y="40" font-size="18" fill="#5a6880">~/proyectos — ls -la --sort=time</text>
<text x="1168" y="40" font-size="18" fill="#5a6880" text-anchor="end">5 más</text>
<line x1="2" y1="64" x2="1198" y2="64" stroke="#1e2a3d" stroke-width="2"/><text class="ap" x="40" y="104" font-size="18" fill="#4d9fff">$ <tspan fill="#e8eef7">ls -la ~/proyectos/otros</tspan></text><text class="ap" style="animation-delay:0.30s" x="40" y="140" font-size="14" fill="#5a6880" letter-spacing="1.5">PERMISOS</text><text class="ap" style="animation-delay:0.30s" x="190" y="140" font-size="14" fill="#5a6880" letter-spacing="1.5">NOMBRE</text><text class="ap" style="animation-delay:0.30s" x="470" y="140" font-size="14" fill="#5a6880" letter-spacing="1.5">FECHA</text><text class="ap" style="animation-delay:0.30s" x="610" y="140" font-size="14" fill="#5a6880" letter-spacing="1.5">STACK</text><text class="ap" style="animation-delay:0.30s" x="770" y="140" font-size="14" fill="#5a6880" letter-spacing="1.5">ESTADO</text><text class="ap" style="animation-delay:0.30s" x="900" y="140" font-size="14" fill="#5a6880" letter-spacing="1.5">QUÉ ES</text><g class="sube" style="animation-delay:0.50s">
<rect x="28" y="152" width="1144" height="38" rx="8" fill="#101827" opacity="0.55"/>
<text x="40" y="180" font-size="17" fill="#5a6880">drwxr-xr-x</text>
<text x="190" y="180" font-size="17" fill="#e8eef7" font-weight="bold">perfumeria-original/</text>
<text x="470" y="180" font-size="17" fill="#94a0b4">2026.09</text>
<text x="610" y="180" font-size="17" fill="#4d9fff">Next.js</text>
<text x="770" y="180" font-size="17" fill="#ffb142">● demo</text>
<text x="900" y="180" font-size="17" fill="#94a0b4">tienda + panel, 3 sedes</text></g><g class="sube" style="animation-delay:0.64s">
<rect x="28" y="196" width="1144" height="38" rx="8" fill="#101827" opacity="0"/>
<text x="40" y="224" font-size="17" fill="#5a6880">drwxr-xr-x</text>
<text x="190" y="224" font-size="17" fill="#e8eef7" font-weight="bold">calma-peru/</text>
<text x="470" y="224" font-size="17" fill="#94a0b4">2026.08→09</text>
<text x="610" y="224" font-size="17" fill="#4d9fff">WordPress</text>
<text x="770" y="224" font-size="17" fill="#39d353">● en vivo</text>
<text x="900" y="224" font-size="17" fill="#94a0b4">certificados automáticos</text></g><g class="sube" style="animation-delay:0.78s">
<rect x="28" y="240" width="1144" height="38" rx="8" fill="#101827" opacity="0.55"/>
<text x="40" y="268" font-size="17" fill="#5a6880">drwxr-xr-x</text>
<text x="190" y="268" font-size="17" fill="#e8eef7" font-weight="bold">fadex-sac/</text>
<text x="470" y="268" font-size="17" fill="#94a0b4">2026.01→03</text>
<text x="610" y="268" font-size="17" fill="#4d9fff">Flutter Web</text>
<text x="770" y="268" font-size="17" fill="#39d353">● en vivo</text>
<text x="900" y="268" font-size="17" fill="#94a0b4">web corporativa + panel</text></g><g class="sube" style="animation-delay:0.92s">
<rect x="28" y="284" width="1144" height="38" rx="8" fill="#101827" opacity="0"/>
<text x="40" y="312" font-size="17" fill="#5a6880">drwxr-xr-x</text>
<text x="190" y="312" font-size="17" fill="#e8eef7" font-weight="bold">abidetalles/</text>
<text x="470" y="312" font-size="17" fill="#94a0b4">2025.11→01</text>
<text x="610" y="312" font-size="17" fill="#4d9fff">Flutter Web</text>
<text x="770" y="312" font-size="17" fill="#39d353">● en vivo</text>
<text x="900" y="312" font-size="17" fill="#94a0b4">tienda de florería</text></g><g class="sube" style="animation-delay:1.06s">
<rect x="28" y="328" width="1144" height="38" rx="8" fill="#101827" opacity="0.55"/>
<text x="40" y="356" font-size="17" fill="#5a6880">drwxr-xr-x</text>
<text x="190" y="356" font-size="17" fill="#e8eef7" font-weight="bold">safecheck/</text>
<text x="470" y="356" font-size="17" fill="#94a0b4">2025.04→07</text>
<text x="610" y="356" font-size="17" fill="#4d9fff">Flutter</text>
<text x="770" y="356" font-size="17" fill="#4d9fff">● terminado</text>
<text x="900" y="356" font-size="17" fill="#94a0b4">QR, GPS y alertas en obra</text></g>
</svg>